<?xml version="1.0" standalone="no"?>
<!DOCTYPE svg PUBLIC "-//W3C//DTD SVG 20010904//EN"
 "http://www.w3.org/TR/2001/REC-SVG-20010904/DTD/svg10.dtd">
<svg version="1.0" xmlns="http://www.w3.org/2000/svg"
 width="800.000000pt" height="800.000000pt" viewBox="0 0 800.000000 800.000000"
 preserveAspectRatio="xMidYMid meet">
<metadata>
Created by potrace 1.16, written by Peter Selinger 2001-2019
</metadata>
<g transform="translate(0.000000,800.000000) scale(0.100000,-0.100000)"
fill="#FFFFFF" stroke="none">
<path d="M1315 4387 c-177 -59 -289 -200 -356 -447 -30 -108 -37 -351 -15
-480 39 -225 114 -377 251 -515 151 -152 289 -208 602 -245 98 -11 288 -34
423 -50 242 -29 636 -76 1065 -126 237 -28 300 -27 362 5 74 37 123 108 148
213 41 173 -9 296 -160 393 -43 28 -575 351 -1185 720 -102 61 -324 196 -495
300 -170 103 -339 199 -375 212 -79 30 -205 40 -265 20z"/>
<path d="M6483 4385 c-29 -8 -76 -27 -105 -41 -97 -49 -2002 -1206 -2048
-1244 -109 -89 -142 -175 -121 -309 27 -177 114 -277 250 -288 33 -3 199 13
401 37 190 22 458 54 595 70 1034 122 972 113 1108 164 239 90 414 306 489
603 31 122 33 438 4 553 -88 347 -313 525 -573 455z"/>
</g>
</svg>
